# xmcd
#
# Track frame offsets:
#	150
#	13849
#	34260
#	50745
#	75943
#	90920
#	109124
#	126237
#	146237
#	153714
#	171684
#	190207
#	218348
#
# Disc length: 3009 seconds
# Revision: 0
# Processed by: cddbd v1.5.2PL0 Copyright (c) Steve Scherf et al.
# Submitted via: dBpowerAMP V12.0
#
DISCID=b30bbf0d
DTITLE=Various Artist - Ο ελάχιστος εαυτός
DYEAR=2011
DGENRE=Έντεχνο
TTITLE0=Φώτης Σιώτας (φωνητικά) - Loco-Motivo
TTITLE1=Θανάσης Παπακωνσταντίνου and Φώτης Σιώτας (φωνητικά) - Ο ελάχιστος εαυτός
TTITLE2=Φώτης Σιώτας - Ποιός θα με θυμάται
TTITLE3=Θανάσης Παπακωνσταντίνου - San Michele
TTITLE4=Θανάσης Παπακωνσταντίνου and Ορφέας Περίδης - Ανταρκτική
TTITLE5=Φώτης Σιώτας - Σαν παιδί
TTITLE6=Θανάσης Παπακωνσταντίνου and Φώτης Σιώτας (φωνητικά) - Του έρωτα και του θανάτου
TTITLE7=Ορφέας Περίδης and Φώτης Σιώτας (φωνητικά) - Ομίχλη
TTITLE8=Θανάσης Παπακωνσταντίνου - Ερώτηση κρίσεως
TTITLE9=Θανάσης Παπακωνσταντίνου - Σιμούν
TTITLE10=Φωνητικά: Φώτης σιώτας and Σοφία Σαρρή and Μιχάλης Βρέττας - Φέγγαρος
TTITLE11=Θανάσης Παπακωνσταντίνου and Φώτης Σιώτας (φωνητικά) - Τα τραγούδια που έγραψα
TTITLE12=Θανάσης Παπακωνσταντίνου - Bonus track
EXTD=
EXTT0=
EXTT1=
EXTT2=
EXTT3=
EXTT4=
EXTT5=
EXTT6=
EXTT7=
EXTT8=
EXTT9=
EXTT10=
EXTT11=
EXTT12=
PLAYORDER=
